<mxfile host="app.diagrams.net" modified="2024-05-13T15:06:08.826Z" agent="Mozilla/5.0 (Windows NT 10.0; Win64; x64) AppleWebKit/537.36 (KHTML, like Gecko) Chrome/124.0.0.0 Safari/537.36" version="24.4.0" etag="UdrHJ8omqXba4l6TtyBO" type="github">
  <diagram name="Page-1" id="fGpbA59Zzl2cIE-lOLc2">
    <mxGraphModel>
      <root>
        <mxCell id="0" />
        <mxCell id="1" parent="0" />
      </root>
    </mxGraphModel>
  </diagram>
</mxfile>
